<svg xmlns="http://www.w3.org/2000/svg" viewBox="0 0 512 512" role="img" aria-labelledby="title desc">
  <title id="title">Cloudstrucc Verified ID cloud logo</title>
  <desc id="desc">A blue and teal cloud mark with a security check for Verified ID cards.</desc>
  <defs>
    <linearGradient id="cloudstruccGradient" x1="72" y1="74" x2="440" y2="438" gradientUnits="userSpaceOnUse">
      <stop offset="0" stop-color="#2F7BFF"/>
      <stop offset="0.52" stop-color="#16A7D5"/>
      <stop offset="1" stop-color="#48D18A"/>
    </linearGradient>
    <filter id="shadow" x="-20%" y="-20%" width="140%" height="140%">
      <feDropShadow dx="0" dy="18" stdDeviation="18" flood-color="#061528" flood-opacity="0.28"/>
    </filter>
  </defs>
  <rect width="512" height="512" rx="112" fill="#071A2E"/>
  <g filter="url(#shadow)">
    <path
      fill="url(#cloudstruccGradient)"
      d="M166.9 359.5c-54.2 0-98.2-42.6-98.2-95 0-47.8 36.7-87.4 84.5-94.1 20.2-43.9 66.5-72.7 118.2-72.7 67.9 0 123.6 48.9 129.7 111.2 25.4 14.3 42.2 40.6 42.2 70.4 0 44.3-37.1 80.2-82.8 80.2H166.9Z"/>
    <path
      fill="#FFFFFF"
      fill-opacity="0.92"
      d="M234.8 319.8c-6 0-11.7-2.3-16.1-6.6l-45-45.1a22.8 22.8 0 0 1 32.3-32.2l28.8 28.8 71.8-71.8a22.8 22.8 0 0 1 32.3 32.2l-87.9 88.1a22.8 22.8 0 0 1-16.2 6.6Z"/>
  </g>
  <path
    fill="#FFFFFF"
    fill-opacity="0.16"
    d="M170 183.3c19.2-38.8 60.1-64.3 105.8-64.3 44.8 0 83.6 24.5 103.5 60.5-23.7-28.8-60.5-47-101.3-47-43.8 0-83.1 21-108 50.8Z"/>
</svg>
