<svg xmlns="http://www.w3.org/2000/svg" width="360" height="360" viewBox="0 0 61 61" shape-rendering="crispEdges"><path fill="#ffffff" d="M0 0h61v61H0z"/><path stroke="#061625" d="M2 2.5h7m1 0h3m2 0h1m2 0h1m2 0h2m3 0h1m1 0h2m2 0h1m2 0h6m1 0h1m1 0h1m1 0h4m2 0h7M2 3.5h1m5 0h1m1 0h1m2 0h1m1 0h1m1 0h2m4 0h1m3 0h1m6 0h1m1 0h2m2 0h1m4 0h3m1 0h1m2 0h1m5 0h1M2 4.5h1m1 0h3m1 0h1m1 0h3m2 0h1m1 0h3m1 0h2m1 0h3m1 0h2m1 0h1m1 0h1m1 0h1m4 0h2m1 0h1m1 0h5m2 0h1m1 0h3m1 0h1M2 5.5h1m1 0h3m1 0h1m3 0h1m1 0h1m1 0h1m1 0h1m3 0h1m1 0h2m1 0h4m2 0h1m2 0h3m1 0h4m1 0h2m2 0h1m2 0h1m1 0h3m1 0h1M2 6.5h1m1 0h3m1 0h1m1 0h1m4 0h1m1 0h1m1 0h2m2 0h2m1 0h1m1 0h5m5 0h1m1 0h5m1 0h2m1 0h1m2 0h1m1 0h3m1 0h1M2 7.5h1m5 0h1m4 0h1m1 0h1m1 0h1m2 0h4m3 0h2m3 0h4m1 0h2m1 0h2m1 0h1m1 0h1m1 0h2m3 0h1m5 0h1M2 8.5h7m1 0h1m1 0h1m1 0h1m1 0h1m1 0h1m1 0h1m1 0h1m1 0h1m1 0h1m1 0h1m1 0h1m1 0h1m1 0h1m1 0h1m1 0h1m1 0h1m1 0h1m1 0h1m1 0h1m1 0h1m1 0h1m1 0h7M11 9.5h1m1 0h1m2 0h1m1 0h3m3 0h1m1 0h1m1 0h1m3 0h1m1 0h1m2 0h1m1 0h1m2 0h9M2 10.5h1m2 0h6m1 0h1m1 0h4m2 0h2m3 0h8m3 0h3m3 0h1m1 0h2m5 0h1m2 0h1m1 0h3M4 11.5h4m1 0h2m2 0h2m3 0h1m1 0h2m2 0h3m1 0h1m2 0h3m2 0h5m1 0h3m1 0h1m1 0h3m1 0h1m2 0h3M8 12.5h1m1 0h1m1 0h2m1 0h1m2 0h1m3 0h2m1 0h1m2 0h4m2 0h1m2 0h1m8 0h3m5 0h3m1 0h1M2 13.5h1m1 0h1m1 0h1m2 0h1m2 0h8m2 0h3m5 0h1m1 0h1m1 0h6m5 0h6m5 0h1M2 14.5h4m1 0h2m2 0h2m1 0h2m1 0h2m1 0h5m1 0h1m5 0h1m1 0h3m3 0h1m1 0h2m2 0h1m2 0h1m1 0h1m2 0h2m2 0h1M2 15.5h1m8 0h1m4 0h2m2 0h1m2 0h1m2 0h3m1 0h6m4 0h1m2 0h1m5 0h5m2 0h2M2 16.5h1m1 0h2m1 0h3m1 0h2m2 0h1m1 0h1m1 0h1m3 0h1m1 0h2m4 0h1m3 0h1m1 0h1m1 0h2m1 0h1m1 0h2m1 0h1m1 0h3m1 0h1m1 0h2M2 17.5h1m2 0h1m5 0h6m7 0h1m1 0h1m1 0h1m2 0h1m3 0h1m1 0h1m2 0h1m2 0h2m2 0h2m3 0h1m2 0h3M3 18.5h2m1 0h3m1 0h1m2 0h4m2 0h5m3 0h3m3 0h2m3 0h2m4 0h4m1 0h1m1 0h1m6 0h1M2 19.5h2m2 0h2m2 0h2m1 0h3m4 0h2m1 0h4m2 0h2m1 0h2m1 0h2m1 0h2m1 0h2m1 0h2m2 0h1m1 0h2m1 0h2m2 0h2M3 20.5h2m3 0h1m1 0h1m1 0h1m1 0h2m1 0h2m1 0h4m4 0h1m2 0h1m1 0h3m2 0h2m1 0h3m5 0h1m1 0h1m3 0h1m2 0h1M4 21.5h2m3 0h3m1 0h3m2 0h1m2 0h2m2 0h2m1 0h1m1 0h1m1 0h2m1 0h1m7 0h1m1 0h1m1 0h2m1 0h1m2 0h2m3 0h1M4 22.5h1m1 0h1m1 0h1m2 0h2m1 0h2m1 0h2m1 0h5m3 0h1m1 0h3m2 0h1m1 0h4m6 0h2m3 0h1m1 0h1m1 0h2M2 23.5h1m2 0h1m3 0h4m2 0h2m1 0h2m2 0h9m1 0h1m2 0h5m3 0h3m1 0h2m1 0h1m1 0h3m1 0h1M2 24.5h1m1 0h2m2 0h1m6 0h2m3 0h2m4 0h1m1 0h1m3 0h1m1 0h5m1 0h1m1 0h2m1 0h5m3 0h2m1 0h3M7 25.5h1m2 0h3m1 0h2m1 0h1m1 0h2m2 0h1m3 0h1m1 0h1m1 0h3m2 0h2m1 0h2m5 0h4m6 0h2M3 26.5h3m2 0h2m2 0h1m1 0h4m3 0h1m1 0h1m1 0h1m1 0h1m2 0h1m1 0h5m1 0h1m1 0h3m1 0h1m1 0h2m1 0h2m1 0h4m2 0h1M2 27.5h1m2 0h1m3 0h3m1 0h3m1 0h1m1 0h3m3 0h5m1 0h2m1 0h2m4 0h5m1 0h1m2 0h1m2 0h2m1 0h1m1 0h1M2 28.5h1m1 0h7m3 0h1m1 0h4m2 0h1m4 0h7m1 0h1m1 0h1m1 0h4m4 0h1m1 0h8M4 29.5h3m3 0h1m5 0h1m3 0h3m1 0h5m3 0h2m1 0h1m3 0h1m4 0h1m1 0h2m2 0h1m3 0h5M2 30.5h1m3 0h1m1 0h1m1 0h1m1 0h1m1 0h2m1 0h1m1 0h1m1 0h2m1 0h2m2 0h1m1 0h1m1 0h5m1 0h2m3 0h1m4 0h3m1 0h1m1 0h2m1 0h2M3 31.5h4m3 0h3m3 0h4m1 0h1m1 0h1m2 0h3m3 0h2m1 0h1m1 0h1m1 0h1m1 0h2m1 0h5m1 0h1m3 0h1m1 0h1m1 0h1M4 32.5h1m1 0h5m2 0h3m1 0h2m2 0h1m6 0h5m1 0h3m1 0h2m2 0h1m2 0h1m1 0h1m1 0h6m1 0h1m1 0h1M3 33.5h1m1 0h2m2 0h1m4 0h2m4 0h2m2 0h2m2 0h1m4 0h1m1 0h1m1 0h2m2 0h2m1 0h1m2 0h1m1 0h1m1 0h1m3 0h2m1 0h1M4 34.5h1m3 0h2m1 0h4m2 0h2m1 0h4m2 0h2m3 0h2m3 0h1m1 0h3m1 0h3m2 0h1m2 0h1m2 0h1m3 0h2M2 35.5h1m2 0h2m2 0h1m1 0h1m3 0h4m1 0h1m1 0h1m1 0h2m2 0h4m2 0h1m1 0h7m1 0h1m1 0h3m1 0h5m1 0h1M3 36.5h2m2 0h2m2 0h3m3 0h3m5 0h1m2 0h1m3 0h2m2 0h4m1 0h1m2 0h7m1 0h1m1 0h2M3 37.5h2m1 0h1m2 0h1m1 0h1m2 0h3m1 0h1m2 0h2m1 0h1m2 0h2m5 0h4m1 0h2m5 0h2m3 0h3m2 0h1M2 38.5h3m2 0h2m2 0h1m1 0h1m5 0h1m3 0h4m3 0h3m1 0h1m1 0h1m1 0h1m3 0h2m2 0h1m1 0h2m1 0h3m3 0h2M2 39.5h1m1 0h4m1 0h1m2 0h3m3 0h1m3 0h3m1 0h1m1 0h1m4 0h1m6 0h2m1 0h2m1 0h2m1 0h1m2 0h2m1 0h1m1 0h1M2 40.5h5m1 0h2m1 0h2m2 0h1m1 0h2m3 0h2m1 0h1m1 0h2m1 0h3m4 0h5m1 0h1m3 0h1m1 0h1m1 0h6m1 0h1M4 41.5h2m3 0h1m3 0h2m2 0h1m1 0h1m1 0h1m1 0h2m1 0h1m1 0h1m1 0h4m6 0h3m4 0h1m1 0h1m1 0h1m1 0h2m1 0h1M3 42.5h6m5 0h1m1 0h2m3 0h1m2 0h1m5 0h6m2 0h4m2 0h3m1 0h2m3 0h2m1 0h3M2 43.5h6m1 0h1m4 0h7m2 0h1m1 0h2m3 0h1m1 0h5m1 0h1m2 0h2m1 0h1m1 0h3m2 0h1m1 0h2m1 0h1m1 0h1M3 44.5h7m1 0h1m1 0h2m4 0h2m1 0h5m2 0h2m1 0h1m2 0h1m1 0h1m2 0h3m2 0h2m5 0h1m1 0h1m1 0h1m1 0h1M9 45.5h1m6 0h2m4 0h1m1 0h2m1 0h3m1 0h1m1 0h2m1 0h1m2 0h1m2 0h1m1 0h2m1 0h1m1 0h3m1 0h1m1 0h4M3 46.5h1m3 0h6m2 0h1m1 0h1m2 0h1m2 0h2m4 0h1m1 0h1m2 0h1m1 0h3m3 0h2m4 0h1m1 0h1m1 0h2m3 0h1M2 47.5h1m1 0h4m2 0h1m5 0h1m1 0h1m1 0h1m1 0h2m2 0h1m2 0h2m4 0h3m1 0h3m1 0h2m3 0h1m2 0h6M2 48.5h1m1 0h1m2 0h3m4 0h1m1 0h1m4 0h4m2 0h1m2 0h1m2 0h1m2 0h1m4 0h1m4 0h2m1 0h4m1 0h5M2 49.5h5m2 0h2m2 0h3m1 0h1m2 0h1m1 0h2m1 0h5m1 0h2m1 0h1m1 0h1m2 0h2m3 0h1m1 0h1m1 0h3m1 0h3m1 0h1m1 0h1M8 50.5h1m5 0h2m2 0h2m5 0h1m1 0h6m1 0h1m1 0h1m1 0h2m2 0h1m1 0h1m1 0h1m3 0h6m1 0h2M10 51.5h3m2 0h4m1 0h2m1 0h6m3 0h2m6 0h1m1 0h6m1 0h2m3 0h2m1 0h1M2 52.5h7m1 0h1m1 0h1m1 0h2m2 0h3m2 0h1m1 0h2m1 0h1m1 0h1m1 0h2m2 0h2m3 0h2m2 0h1m4 0h1m1 0h1m1 0h1M2 53.5h1m5 0h1m1 0h1m5 0h1m3 0h1m1 0h2m4 0h1m3 0h1m2 0h1m2 0h3m2 0h1m3 0h1m1 0h2m3 0h4M2 54.5h1m1 0h3m1 0h1m1 0h1m1 0h2m1 0h1m1 0h2m3 0h3m1 0h9m1 0h1m3 0h1m2 0h1m1 0h2m1 0h7m2 0h1M2 55.5h1m1 0h3m1 0h1m1 0h1m2 0h1m1 0h6m2 0h1m1 0h2m1 0h1m4 0h5m1 0h1m5 0h1m1 0h2m2 0h2m1 0h3M2 56.5h1m1 0h3m1 0h1m2 0h1m4 0h1m1 0h2m1 0h1m1 0h2m1 0h1m1 0h1m1 0h2m3 0h1m3 0h1m1 0h1m1 0h2m1 0h1m2 0h4m1 0h1m2 0h2M2 57.5h1m5 0h1m3 0h2m1 0h1m1 0h2m1 0h1m1 0h3m1 0h2m1 0h1m1 0h2m1 0h3m5 0h4m1 0h1m2 0h1m1 0h7M2 58.5h7m1 0h1m3 0h1m2 0h1m2 0h2m1 0h2m1 0h3m1 0h1m5 0h1m1 0h1m3 0h1m1 0h1m2 0h4m2 0h2"/></svg>
